<mxfile host="app.diagrams.net" modified="2022-08-22T15:17:39.785Z" agent="5.0 (Windows NT 10.0; Win64; x64) AppleWebKit/537.36 (KHTML, like Gecko) Chrome/104.0.0.0 Safari/537.36" etag="WwNaWlCu5Xkvz9G5XsmP" version="20.2.6" type="github">
  <diagram id="g6OfF3pMCjhWLpaEgUmG" name="Page-1">
    <mxGraphModel dx="2272" dy="794" grid="1" gridSize="10" guides="1" tooltips="1" connect="1" arrows="1" fold="1" page="1" pageScale="1" pageWidth="850" pageHeight="1100" math="0" shadow="0">
      <root>
        <mxCell id="0" />
        <mxCell id="1" parent="0" />
        <mxCell id="OUnS4or-5aYTcBHGH3Qf-1" value="RatesDirector" style="swimlane;fontStyle=1;align=center;verticalAlign=top;childLayout=stackLayout;horizontal=1;startSize=26;horizontalStack=0;resizeParent=1;resizeParentMax=0;resizeLast=0;collapsible=1;marginBottom=0;" vertex="1" parent="1">
          <mxGeometry x="265" y="560" width="160" height="86" as="geometry" />
        </mxCell>
        <mxCell id="OUnS4or-5aYTcBHGH3Qf-2" value="+ field: type" style="text;strokeColor=none;fillColor=none;align=left;verticalAlign=top;spacingLeft=4;spacingRight=4;overflow=hidden;rotatable=0;points=[[0,0.5],[1,0.5]];portConstraint=eastwest;" vertex="1" parent="OUnS4or-5aYTcBHGH3Qf-1">
          <mxGeometry y="26" width="160" height="26" as="geometry" />
        </mxCell>
        <mxCell id="OUnS4or-5aYTcBHGH3Qf-3" value="" style="line;strokeWidth=1;fillColor=none;align=left;verticalAlign=middle;spacingTop=-1;spacingLeft=3;spacingRight=3;rotatable=0;labelPosition=right;points=[];portConstraint=eastwest;" vertex="1" parent="OUnS4or-5aYTcBHGH3Qf-1">
          <mxGeometry y="52" width="160" height="8" as="geometry" />
        </mxCell>
        <mxCell id="OUnS4or-5aYTcBHGH3Qf-4" value="+ method(type): type" style="text;strokeColor=none;fillColor=none;align=left;verticalAlign=top;spacingLeft=4;spacingRight=4;overflow=hidden;rotatable=0;points=[[0,0.5],[1,0.5]];portConstraint=eastwest;" vertex="1" parent="OUnS4or-5aYTcBHGH3Qf-1">
          <mxGeometry y="60" width="160" height="26" as="geometry" />
        </mxCell>
        <mxCell id="OUnS4or-5aYTcBHGH3Qf-9" value="RatesRetrievalBuilder" style="swimlane;fontStyle=1;align=center;verticalAlign=top;childLayout=stackLayout;horizontal=1;startSize=26;horizontalStack=0;resizeParent=1;resizeParentMax=0;resizeLast=0;collapsible=1;marginBottom=0;" vertex="1" parent="1">
          <mxGeometry x="420" y="160" width="220" height="84" as="geometry" />
        </mxCell>
        <mxCell id="OUnS4or-5aYTcBHGH3Qf-11" value="" style="line;strokeWidth=1;fillColor=none;align=left;verticalAlign=middle;spacingTop=-1;spacingLeft=3;spacingRight=3;rotatable=0;labelPosition=right;points=[];portConstraint=eastwest;" vertex="1" parent="OUnS4or-5aYTcBHGH3Qf-9">
          <mxGeometry y="26" width="220" height="8" as="geometry" />
        </mxCell>
        <mxCell id="OUnS4or-5aYTcBHGH3Qf-12" value="+ method(List&lt;Rates&gt;): GetRates" style="text;strokeColor=none;fillColor=none;align=left;verticalAlign=top;spacingLeft=4;spacingRight=4;overflow=hidden;rotatable=0;points=[[0,0.5],[1,0.5]];portConstraint=eastwest;" vertex="1" parent="OUnS4or-5aYTcBHGH3Qf-9">
          <mxGeometry y="34" width="220" height="50" as="geometry" />
        </mxCell>
        <mxCell id="OUnS4or-5aYTcBHGH3Qf-14" value="RatesCalculationBuilder" style="swimlane;fontStyle=1;align=center;verticalAlign=top;childLayout=stackLayout;horizontal=1;startSize=26;horizontalStack=0;resizeParent=1;resizeParentMax=0;resizeLast=0;collapsible=1;marginBottom=0;" vertex="1" parent="1">
          <mxGeometry x="115" y="160" width="220" height="80" as="geometry" />
        </mxCell>
        <mxCell id="OUnS4or-5aYTcBHGH3Qf-15" value="" style="line;strokeWidth=1;fillColor=none;align=left;verticalAlign=middle;spacingTop=-1;spacingLeft=3;spacingRight=3;rotatable=0;labelPosition=right;points=[];portConstraint=eastwest;" vertex="1" parent="OUnS4or-5aYTcBHGH3Qf-14">
          <mxGeometry y="26" width="220" height="8" as="geometry" />
        </mxCell>
        <mxCell id="OUnS4or-5aYTcBHGH3Qf-16" value="+ method(List&lt;Rates&gt;): CalculateRates" style="text;strokeColor=none;fillColor=none;align=left;verticalAlign=top;spacingLeft=4;spacingRight=4;overflow=hidden;rotatable=0;points=[[0,0.5],[1,0.5]];portConstraint=eastwest;" vertex="1" parent="OUnS4or-5aYTcBHGH3Qf-14">
          <mxGeometry y="34" width="220" height="46" as="geometry" />
        </mxCell>
        <mxCell id="OUnS4or-5aYTcBHGH3Qf-37" style="edgeStyle=orthogonalEdgeStyle;rounded=0;orthogonalLoop=1;jettySize=auto;html=1;exitX=0.5;exitY=1;exitDx=0;exitDy=0;entryX=0;entryY=0.154;entryDx=0;entryDy=0;entryPerimeter=0;" edge="1" parent="1" source="OUnS4or-5aYTcBHGH3Qf-17" target="OUnS4or-5aYTcBHGH3Qf-4">
          <mxGeometry relative="1" as="geometry" />
        </mxCell>
        <mxCell id="OUnS4or-5aYTcBHGH3Qf-17" value="«interface»&lt;br&gt;&lt;b&gt;IRatesCalculationBuilder&lt;/b&gt;" style="html=1;" vertex="1" parent="1">
          <mxGeometry x="115" y="420" width="170" height="50" as="geometry" />
        </mxCell>
        <mxCell id="OUnS4or-5aYTcBHGH3Qf-18" value="«interface»&lt;br&gt;&lt;b&gt;IRatesRetrivalBuilder&lt;/b&gt;" style="html=1;" vertex="1" parent="1">
          <mxGeometry x="410" y="420" width="170" height="50" as="geometry" />
        </mxCell>
        <mxCell id="OUnS4or-5aYTcBHGH3Qf-23" style="edgeStyle=orthogonalEdgeStyle;rounded=0;orthogonalLoop=1;jettySize=auto;html=1;exitX=0;exitY=0.5;exitDx=0;exitDy=0;entryX=0.5;entryY=0;entryDx=0;entryDy=0;" edge="1" parent="1" source="OUnS4or-5aYTcBHGH3Qf-16" target="OUnS4or-5aYTcBHGH3Qf-17">
          <mxGeometry relative="1" as="geometry" />
        </mxCell>
        <mxCell id="OUnS4or-5aYTcBHGH3Qf-24" style="edgeStyle=orthogonalEdgeStyle;rounded=0;orthogonalLoop=1;jettySize=auto;html=1;exitX=0;exitY=0.5;exitDx=0;exitDy=0;entryX=0.5;entryY=0;entryDx=0;entryDy=0;" edge="1" parent="1" source="OUnS4or-5aYTcBHGH3Qf-12" target="OUnS4or-5aYTcBHGH3Qf-18">
          <mxGeometry relative="1" as="geometry" />
        </mxCell>
        <mxCell id="OUnS4or-5aYTcBHGH3Qf-31" value="Rates" style="swimlane;fontStyle=1;align=center;verticalAlign=top;childLayout=stackLayout;horizontal=1;startSize=26;horizontalStack=0;resizeParent=1;resizeParentMax=0;resizeLast=0;collapsible=1;marginBottom=0;" vertex="1" parent="1">
          <mxGeometry x="650" y="280" width="160" height="60" as="geometry" />
        </mxCell>
        <mxCell id="OUnS4or-5aYTcBHGH3Qf-32" value="+ field: type" style="text;strokeColor=none;fillColor=none;align=left;verticalAlign=top;spacingLeft=4;spacingRight=4;overflow=hidden;rotatable=0;points=[[0,0.5],[1,0.5]];portConstraint=eastwest;" vertex="1" parent="OUnS4or-5aYTcBHGH3Qf-31">
          <mxGeometry y="26" width="160" height="26" as="geometry" />
        </mxCell>
        <mxCell id="OUnS4or-5aYTcBHGH3Qf-33" value="" style="line;strokeWidth=1;fillColor=none;align=left;verticalAlign=middle;spacingTop=-1;spacingLeft=3;spacingRight=3;rotatable=0;labelPosition=right;points=[];portConstraint=eastwest;" vertex="1" parent="OUnS4or-5aYTcBHGH3Qf-31">
          <mxGeometry y="52" width="160" height="8" as="geometry" />
        </mxCell>
        <mxCell id="OUnS4or-5aYTcBHGH3Qf-35" value="Implements" style="text;html=1;strokeColor=none;fillColor=none;align=center;verticalAlign=middle;whiteSpace=wrap;rounded=0;" vertex="1" parent="1">
          <mxGeometry x="115" y="270" width="60" height="30" as="geometry" />
        </mxCell>
        <mxCell id="OUnS4or-5aYTcBHGH3Qf-36" value="Implements" style="text;html=1;strokeColor=none;fillColor=none;align=center;verticalAlign=middle;whiteSpace=wrap;rounded=0;" vertex="1" parent="1">
          <mxGeometry x="410" y="270" width="60" height="30" as="geometry" />
        </mxCell>
        <mxCell id="OUnS4or-5aYTcBHGH3Qf-42" style="edgeStyle=orthogonalEdgeStyle;rounded=0;orthogonalLoop=1;jettySize=auto;html=1;exitX=0.5;exitY=1;exitDx=0;exitDy=0;entryX=1;entryY=0.5;entryDx=0;entryDy=0;" edge="1" parent="1" source="OUnS4or-5aYTcBHGH3Qf-18" target="OUnS4or-5aYTcBHGH3Qf-4">
          <mxGeometry relative="1" as="geometry">
            <mxPoint x="570" y="530" as="sourcePoint" />
            <mxPoint x="635" y="684.0039999999999" as="targetPoint" />
          </mxGeometry>
        </mxCell>
        <mxCell id="OUnS4or-5aYTcBHGH3Qf-43" value="injected into" style="text;html=1;strokeColor=none;fillColor=none;align=center;verticalAlign=middle;whiteSpace=wrap;rounded=0;" vertex="1" parent="1">
          <mxGeometry x="430" y="500" width="60" height="30" as="geometry" />
        </mxCell>
        <mxCell id="OUnS4or-5aYTcBHGH3Qf-44" value="injected into" style="text;html=1;strokeColor=none;fillColor=none;align=center;verticalAlign=middle;whiteSpace=wrap;rounded=0;" vertex="1" parent="1">
          <mxGeometry x="205" y="500" width="60" height="30" as="geometry" />
        </mxCell>
        <mxCell id="OUnS4or-5aYTcBHGH3Qf-45" value="" style="endArrow=none;dashed=1;html=1;dashPattern=1 3;strokeWidth=2;rounded=0;" edge="1" parent="1">
          <mxGeometry width="50" height="50" relative="1" as="geometry">
            <mxPoint y="110" as="sourcePoint" />
            <mxPoint x="850" y="110" as="targetPoint" />
          </mxGeometry>
        </mxCell>
        <mxCell id="OUnS4or-5aYTcBHGH3Qf-46" value="Text" style="text;html=1;strokeColor=none;fillColor=none;align=center;verticalAlign=middle;whiteSpace=wrap;rounded=0;" vertex="1" parent="1">
          <mxGeometry x="400" y="390" width="60" height="30" as="geometry" />
        </mxCell>
        <mxCell id="OUnS4or-5aYTcBHGH3Qf-47" value="Controllers" style="text;html=1;strokeColor=none;fillColor=none;align=center;verticalAlign=middle;whiteSpace=wrap;rounded=0;" vertex="1" parent="1">
          <mxGeometry x="290" y="50" width="220" height="30" as="geometry" />
        </mxCell>
      </root>
    </mxGraphModel>
  </diagram>
</mxfile>
